<svg width="26" height="30" viewBox="0 0 26 30" fill="none" xmlns="http://www.w3.org/2000/svg">
<path d="M0.928571 7.73438H25.0714C25.5843 7.73438 26 7.31467 26 6.79688V4.45312C26 3.93533 25.5843 3.51562 25.0714 3.51562H0.928571C0.41571 3.51562 0 3.93533 0 4.45312V6.79688C0 7.31467 0.41571 7.73438 0.928571 7.73438ZM0.928571 17.1094H25.0714C25.5843 17.1094 26 16.6897 26 16.1719V13.8281C26 13.3103 25.5843 12.8906 25.0714 12.8906H0.928571C0.41571 12.8906 0 13.3103 0 13.8281V16.1719C0 16.6897 0.41571 17.1094 0.928571 17.1094ZM0.928571 26.4844H25.0714C25.5843 26.4844 26 26.0647 26 25.5469V23.2031C26 22.6853 25.5843 22.2656 25.0714 22.2656H0.928571C0.41571 22.2656 0 22.6853 0 23.2031V25.5469C0 26.0647 0.41571 26.4844 0.928571 26.4844Z" fill="black"/>
</svg>
