<svg width="28" height="32" viewBox="0 0 28 32" fill="none" xmlns="http://www.w3.org/2000/svg">
<path d="M27.25 10C27.6625 10 28 9.6625 28 9.25V6.75C28 6.3375 27.6625 6 27.25 6H26V3C26 1.34375 24.6562 0 23 0H3C1.34375 0 0 1.34375 0 3V29C0 30.6562 1.34375 32 3 32H23C24.6562 32 26 30.6562 26 29V26H27.25C27.6625 26 28 25.6625 28 25.25V22.75C28 22.3375 27.6625 22 27.25 22H26V18H27.25C27.6625 18 28 17.6625 28 17.25V14.75C28 14.3375 27.6625 14 27.25 14H26V10H27.25ZM13 8C15.2063 8 17 9.79375 17 12C17 14.2063 15.2063 16 13 16C10.7937 16 9 14.2063 9 12C9 9.79375 10.7937 8 13 8ZM20 22.8C20 23.4625 19.375 24 18.6 24H7.4C6.625 24 6 23.4625 6 22.8V21.6C6 19.6125 7.88125 18 10.2 18H10.5125C11.2812 18.3188 12.1187 18.5 13 18.5C13.8813 18.5 14.725 18.3188 15.4875 18H15.8C18.1187 18 20 19.6125 20 21.6V22.8Z" fill="black"/>
</svg>
