<svg width="27" height="27" viewBox="0 0 27 27" fill="none" xmlns="http://www.w3.org/2000/svg">
<path d="M24.4688 3.375C25.8662 3.375 27 4.50826 27 5.90625C27 6.70254 26.6256 7.45137 25.9875 7.93125L14.5125 16.5375C13.9113 16.9857 13.0887 16.9857 12.4875 16.5375L1.0125 7.93125C0.3751 7.45137 0 6.70254 0 5.90625C0 4.50826 1.13326 3.375 2.53125 3.375H24.4688ZM11.475 17.8875C12.6773 18.7893 14.3227 18.7893 15.525 17.8875L27 9.28125V20.25C27 22.1115 25.4865 23.625 23.625 23.625H3.375C1.51084 23.625 0 22.1115 0 20.25V9.28125L11.475 17.8875Z" fill="black"/>
</svg>
