<svg width="39" height="39" viewBox="0 0 39 39" fill="none" xmlns="http://www.w3.org/2000/svg">
<g filter="url(#filter0_d_129_28)">
<path d="M14.3125 24.875C14.3125 25 14.1875 25.0625 14 25.0625C13.8125 25.125 13.6875 25 13.6875 24.875C13.6875 24.75 13.8125 24.625 14 24.625C14.1875 24.625 14.3125 24.75 14.3125 24.875ZM12.375 24.5625C12.375 24.6875 12.5 24.875 12.6875 24.875C12.8125 24.9375 13 24.875 13.0625 24.75C13.0625 24.625 13 24.5 12.8125 24.4375C12.625 24.375 12.4375 24.4375 12.375 24.5625ZM15.1875 24.5C15 24.5 14.875 24.625 14.875 24.8125C14.875 24.9375 15.0625 25 15.25 24.9375C15.4375 24.875 15.5625 24.8125 15.5 24.6875C15.5 24.5625 15.3125 24.4375 15.1875 24.5ZM19.25 0.5C10.625 0.5 4 7.125 4 15.75C4 22.6875 8.3125 28.625 14.5625 30.75C15.375 30.875 15.625 30.375 15.625 30C15.625 29.5625 15.625 27.4375 15.625 26.125C15.625 26.125 11.25 27.0625 10.3125 24.25C10.3125 24.25 9.625 22.4375 8.625 22C8.625 22 7.1875 21 8.6875 21C8.6875 21 10.25 21.125 11.125 22.625C12.5 25.0625 14.75 24.375 15.6875 23.9375C15.8125 22.9375 16.1875 22.25 16.6875 21.8125C13.1875 21.4375 9.625 20.9375 9.625 14.9375C9.625 13.1875 10.125 12.375 11.125 11.25C10.9375 10.8125 10.4375 9.1875 11.3125 7C12.5625 6.625 15.625 8.6875 15.625 8.6875C16.875 8.3125 18.1875 8.1875 19.5 8.1875C20.875 8.1875 22.1875 8.3125 23.4375 8.6875C23.4375 8.6875 26.4375 6.5625 27.75 7C28.625 9.1875 28.0625 10.8125 27.9375 11.25C28.9375 12.375 29.5625 13.1875 29.5625 14.9375C29.5625 20.9375 25.875 21.4375 22.375 21.8125C22.9375 22.3125 23.4375 23.25 23.4375 24.75C23.4375 26.8125 23.375 29.4375 23.375 29.9375C23.375 30.375 23.6875 30.875 24.5 30.6875C30.75 28.625 35 22.6875 35 15.75C35 7.125 27.9375 0.5 19.25 0.5ZM10.0625 22.0625C9.9375 22.125 10 22.3125 10.0625 22.4375C10.1875 22.5 10.3125 22.5625 10.4375 22.5C10.5 22.4375 10.5 22.25 10.375 22.125C10.25 22.0625 10.125 22 10.0625 22.0625ZM9.375 21.5625C9.3125 21.6875 9.375 21.75 9.5 21.8125C9.625 21.875 9.75 21.875 9.8125 21.75C9.8125 21.6875 9.75 21.625 9.625 21.5625C9.5 21.5 9.4375 21.5 9.375 21.5625ZM11.375 23.8125C11.3125 23.875 11.3125 24.0625 11.5 24.1875C11.625 24.3125 11.8125 24.375 11.875 24.25C11.9375 24.1875 11.9375 24 11.8125 23.875C11.6875 23.75 11.5 23.6875 11.375 23.8125ZM10.6875 22.875C10.5625 22.9375 10.5625 23.125 10.6875 23.25C10.8125 23.375 10.9375 23.4375 11.0625 23.375C11.125 23.3125 11.125 23.125 11.0625 23C10.9375 22.875 10.8125 22.8125 10.6875 22.875Z" fill="url(#paint0_linear_129_28)" shape-rendering="crispEdges"/>
</g>
<defs>
<filter id="filter0_d_129_28" x="0" y="0.5" width="39" height="38.375" filterUnits="userSpaceOnUse" color-interpolation-filters="sRGB">
<feFlood flood-opacity="0" result="BackgroundImageFix"/>
<feColorMatrix in="SourceAlpha" type="matrix" values="0 0 0 0 0 0 0 0 0 0 0 0 0 0 0 0 0 0 127 0" result="hardAlpha"/>
<feOffset dy="4"/>
<feGaussianBlur stdDeviation="2"/>
<feComposite in2="hardAlpha" operator="out"/>
<feColorMatrix type="matrix" values="0 0 0 0 0.475 0 0 0 0 0 0 0 0 0 0 0 0 0 0.25 0"/>
<feBlend mode="normal" in2="BackgroundImageFix" result="effect1_dropShadow_129_28"/>
<feBlend mode="normal" in="SourceGraphic" in2="effect1_dropShadow_129_28" result="shape"/>
</filter>
<linearGradient id="paint0_linear_129_28" x1="21" y1="-2" x2="21" y2="33" gradientUnits="userSpaceOnUse">
<stop stop-color="#FD1F1F"/>
<stop offset="1" stop-color="#FD1F1F" stop-opacity="0.35"/>
</linearGradient>
</defs>
</svg>
