<svg width="37" height="30" viewBox="0 0 37 30" fill="none" xmlns="http://www.w3.org/2000/svg">
<g clip-path="url(#clip0_37_132)">
<path d="M29.6058 11.1912L29.1317 12.0291C28.9583 12.3396 28.5883 12.4685 28.2587 12.3455C27.5766 12.0877 26.9522 11.7185 26.403 11.2557C26.137 11.033 26.0676 10.6404 26.2411 10.3357L26.7152 9.49784C26.3162 9.02909 26.0041 8.48417 25.7959 7.89237H24.842C24.4952 7.89237 24.1945 7.64042 24.1367 7.28886C24.0211 6.58573 24.0153 5.84745 24.1367 5.11503C24.1945 4.76347 24.4952 4.50565 24.842 4.50565H25.7959C26.0041 3.91386 26.3162 3.36893 26.7152 2.90018L26.2411 2.06229C26.0676 1.75761 26.1312 1.36503 26.403 1.14237C26.9522 0.679481 27.5823 0.31034 28.2587 0.0525276C28.5883 -0.0705193 28.9583 0.058387 29.1317 0.368934L29.6058 1.20682C30.2128 1.0955 30.8314 1.0955 31.4384 1.20682L31.9125 0.368934C32.0859 0.058387 32.4559 -0.0705193 32.7855 0.0525276C33.4676 0.31034 34.092 0.679481 34.6412 1.14237C34.9072 1.36503 34.9766 1.75761 34.8031 2.06229L34.3291 2.90018C34.728 3.36893 35.0401 3.91386 35.2483 4.50565H36.2022C36.5491 4.50565 36.8497 4.75761 36.9075 5.10917C37.0231 5.81229 37.0289 6.55057 36.9075 7.283C36.8497 7.63456 36.5491 7.89237 36.2022 7.89237H35.2483C35.0401 8.48417 34.728 9.02909 34.3291 9.49784L34.8031 10.3357C34.9766 10.6404 34.913 11.033 34.6412 11.2557C34.092 11.7185 33.4619 12.0877 32.7855 12.3455C32.4559 12.4685 32.0859 12.3396 31.9125 12.0291L31.4384 11.1912C30.8372 11.3025 30.2128 11.3025 29.6058 11.1912ZM28.9987 7.74589C31.2245 9.48026 33.7625 6.908 32.0512 4.65214C29.8255 2.9119 27.2875 5.49003 28.9987 7.74589ZM22.333 16.7635L24.2812 17.7478C24.8652 18.0877 25.1195 18.8084 24.8883 19.4529C24.3737 20.8709 23.362 22.1717 22.4255 23.3084C21.9977 23.8299 21.2577 23.9588 20.6737 23.6189L18.9914 22.6346C18.0664 23.4373 16.9911 24.076 15.8175 24.492V26.4607C15.8175 27.1404 15.3376 27.7264 14.6786 27.8435C13.2564 28.0896 11.7648 28.1014 10.2906 27.8435C9.62577 27.7264 9.13437 27.1463 9.13437 26.4607V24.492C7.96077 24.0701 6.88546 23.4373 5.96046 22.6346L4.27812 23.6131C3.69999 23.9529 2.95421 23.824 2.5264 23.3025C1.58984 22.1658 0.601244 20.865 0.0867123 19.4529C-0.144538 18.8142 0.109837 18.0935 0.693744 17.7478L2.6189 16.7635C2.39343 15.5389 2.39343 14.2791 2.6189 13.0486L0.693744 12.0584C0.109837 11.7185 -0.150319 10.9978 0.0867123 10.3592C0.601244 8.9412 1.58984 7.64042 2.5264 6.5037C2.95421 5.98222 3.69421 5.85331 4.27812 6.19315L5.96046 7.17753C6.88546 6.37479 7.96077 5.73612 9.13437 5.32011V3.3455C9.13437 2.67167 9.60843 2.08573 10.2675 1.96854C11.6897 1.72245 13.187 1.71073 14.6612 1.96268C15.3261 2.07987 15.8175 2.65995 15.8175 3.3455V5.31425C16.9911 5.73612 18.0664 6.36893 18.9914 7.17167L20.6737 6.18729C21.2519 5.84745 21.9977 5.97636 22.4255 6.49784C23.362 7.63456 24.3448 8.93534 24.8594 10.3533C25.0906 10.992 24.8652 11.7127 24.2812 12.0584L22.333 13.0428C22.5584 14.2732 22.5584 15.533 22.333 16.7635ZM15.5342 17.9998C18.9567 13.4881 13.875 8.33768 9.42343 11.8064C6.00093 16.3182 11.0827 21.4685 15.5342 17.9998ZM29.6058 28.7049L29.1317 29.5428C28.9583 29.8533 28.5883 29.9822 28.2587 29.8592C27.5766 29.6014 26.9522 29.2322 26.403 28.7693C26.137 28.5467 26.0676 28.1541 26.2411 27.8494L26.7152 27.0115C26.3162 26.5428 26.0041 25.9978 25.7959 25.406H24.842C24.4952 25.406 24.1945 25.1541 24.1367 24.8025C24.0211 24.0994 24.0153 23.3611 24.1367 22.6287C24.1945 22.2771 24.4952 22.0193 24.842 22.0193H25.7959C26.0041 21.4275 26.3162 20.8826 26.7152 20.4139L26.2411 19.576C26.0676 19.2713 26.1312 18.8787 26.403 18.656C26.9522 18.1932 27.5823 17.824 28.2587 17.5662C28.5883 17.4432 28.9583 17.5721 29.1317 17.8826L29.6058 18.7205C30.2128 18.6092 30.8314 18.6092 31.4384 18.7205L31.9125 17.8826C32.0859 17.5721 32.4559 17.4432 32.7855 17.5662C33.4676 17.824 34.092 18.1932 34.6412 18.656C34.9072 18.8787 34.9766 19.2713 34.8031 19.576L34.3291 20.4139C34.728 20.8826 35.0401 21.4275 35.2483 22.0193H36.2022C36.5491 22.0193 36.8497 22.2713 36.9075 22.6228C37.0231 23.326 37.0289 24.0642 36.9075 24.7967C36.8497 25.1482 36.5491 25.406 36.2022 25.406H35.2483C35.0401 25.9978 34.728 26.5428 34.3291 27.0115L34.8031 27.8494C34.9766 28.1541 34.913 28.5467 34.6412 28.7693C34.092 29.2322 33.4619 29.6014 32.7855 29.8592C32.4559 29.9822 32.0859 29.8533 31.9125 29.5428L31.4384 28.7049C30.8372 28.8162 30.2128 28.8162 29.6058 28.7049ZM28.9987 25.2537C31.2245 26.9881 33.7625 24.4158 32.0512 22.16C29.8255 20.4256 27.2875 22.9978 28.9987 25.2537Z" fill="black"/>
</g>
<defs>
<clipPath id="clip0_37_132">
<rect width="37" height="30" fill="white"/>
</clipPath>
</defs>
</svg>
