<svg width="44" height="51" viewBox="0 0 44 51" fill="none" xmlns="http://www.w3.org/2000/svg">
<path d="M40.8571 3.1875H3.13304C1.40446 3.1875 0 4.63184 0 6.40488V44.5951C0 46.3682 1.40446 47.8125 3.13304 47.8125H40.8571C42.5857 47.8125 44 46.3682 44 44.5951V6.40488C44 4.63184 42.5857 3.1875 40.8571 3.1875ZM13.2982 41.4375H6.77679V20.141H13.308V41.4375H13.2982ZM10.0375 17.2324C7.94554 17.2324 6.25625 15.5092 6.25625 13.3975C6.25625 11.2857 7.94554 9.5625 10.0375 9.5625C12.1196 9.5625 13.8187 11.2857 13.8187 13.3975C13.8187 15.5191 12.1295 17.2324 10.0375 17.2324V17.2324ZM37.7437 41.4375H31.2223V31.0781C31.2223 28.6078 31.1732 25.4303 27.8339 25.4303C24.4357 25.4303 23.9152 28.1197 23.9152 30.8988V41.4375H17.3938V20.141H23.65V23.0496H23.7384C24.6125 21.3762 26.7438 19.6131 29.9161 19.6131C36.5161 19.6131 37.7437 24.0258 37.7437 29.7633V41.4375V41.4375Z" fill="#427BE9"/>
</svg>
