<svg width="27" height="27" viewBox="0 0 27 27" fill="none" xmlns="http://www.w3.org/2000/svg">
<g clip-path="url(#clip0_34_60)">
<path d="M0.997736 18.5204L6.71942 16.0671C7.39336 15.7755 8.18385 15.9722 8.64158 16.5407L10.9666 19.3789C14.6185 17.5859 17.5848 14.6164 19.3778 10.9677L16.5401 8.64531C15.9732 8.18225 15.7802 7.39603 16.0669 6.72209L18.5196 1.00041C18.8409 0.266874 19.6323 -0.134434 20.4069 0.0453898L25.7226 1.27146C26.474 1.44285 26.9998 2.10467 26.9998 2.87775C26.9998 16.1826 16.1787 27.0037 2.87381 27.0037C2.1002 27.0037 1.44049 26.4781 1.26805 25.7265L0.0419781 20.4109C-0.135579 19.6383 0.264623 18.8368 0.997736 18.5204Z" fill="black"/>
</g>
<defs>
<clipPath id="clip0_34_60">
<rect width="27" height="27" fill="white"/>
</clipPath>
</defs>
</svg>
