<svg width="37" height="34" viewBox="0 0 37 34" fill="none" xmlns="http://www.w3.org/2000/svg">
<path d="M35.905 5.8065C37.3496 4.47899 37.3496 2.32313 35.905 0.995627C34.4603 -0.331876 32.1142 -0.331876 30.6696 0.995627L18.5 12.1891L6.31883 1.00625C4.8742 -0.321256 2.52811 -0.321256 1.08348 1.00625C-0.361159 2.33375 -0.361159 4.48961 1.08348 5.81712L13.2646 17L1.09503 28.1935C-0.349602 29.521 -0.349602 31.6769 1.09503 33.0044C2.53967 34.3319 4.88576 34.3319 6.33039 33.0044L18.5 21.8109L30.6812 32.9937C32.1258 34.3213 34.4719 34.3213 35.9165 32.9937C37.3612 31.6662 37.3612 29.5104 35.9165 28.1829L23.7354 17L35.905 5.8065Z" fill="#D72828"/>
</svg>
