<svg width="37" height="35" viewBox="0 0 37 35" fill="none" xmlns="http://www.w3.org/2000/svg">
<path d="M1.32143 6.91028H35.6786C36.4084 6.91028 37 6.28779 37 5.51982V2.04366C37 1.27569 36.4084 0.653198 35.6786 0.653198H1.32143C0.591587 0.653198 0 1.27569 0 2.04366V5.51982C0 6.28779 0.591587 6.91028 1.32143 6.91028ZM1.32143 20.8149H35.6786C36.4084 20.8149 37 20.1924 37 19.4244V15.9483C37 15.1803 36.4084 14.5578 35.6786 14.5578H1.32143C0.591587 14.5578 0 15.1803 0 15.9483V19.4244C0 20.1924 0.591587 20.8149 1.32143 20.8149ZM1.32143 34.7195H35.6786C36.4084 34.7195 37 34.097 37 33.3291V29.8529C37 29.0849 36.4084 28.4624 35.6786 28.4624H1.32143C0.591587 28.4624 0 29.0849 0 29.8529V33.3291C0 34.097 0.591587 34.7195 1.32143 34.7195Z" fill="#D72828"/>
</svg>
