<svg width="93" height="92" viewBox="0 0 93 92" fill="none" xmlns="http://www.w3.org/2000/svg">
<path d="M30.9375 73.625C30.9375 74 30.5625 74.1875 30 74.1875C29.4375 74.375 29.0625 74 29.0625 73.625C29.0625 73.25 29.4375 72.875 30 72.875C30.5625 72.875 30.9375 73.25 30.9375 73.625ZM25.125 72.6875C25.125 73.0625 25.5 73.625 26.0625 73.625C26.4375 73.8125 27 73.625 27.1875 73.25C27.1875 72.875 27 72.5 26.4375 72.3125C25.875 72.125 25.3125 72.3125 25.125 72.6875ZM33.5625 72.5C33 72.5 32.625 72.875 32.625 73.4375C32.625 73.8125 33.1875 74 33.75 73.8125C34.3125 73.625 34.6875 73.4375 34.5 73.0625C34.5 72.6875 33.9375 72.3125 33.5625 72.5ZM45.75 0.5C19.875 0.5 0 20.375 0 46.25C0 67.0625 12.9375 84.875 31.6875 91.25C34.125 91.625 34.875 90.125 34.875 89C34.875 87.6875 34.875 81.3125 34.875 77.375C34.875 77.375 21.75 80.1875 18.9375 71.75C18.9375 71.75 16.875 66.3125 13.875 65C13.875 65 9.5625 62 14.0625 62C14.0625 62 18.75 62.375 21.375 66.875C25.5 74.1875 32.25 72.125 35.0625 70.8125C35.4375 67.8125 36.5625 65.75 38.0625 64.4375C27.5625 63.3125 16.875 61.8125 16.875 43.8125C16.875 38.5625 18.375 36.125 21.375 32.75C20.8125 31.4375 19.3125 26.5625 21.9375 20C25.6875 18.875 34.875 25.0625 34.875 25.0625C38.625 23.9375 42.5625 23.5625 46.5 23.5625C50.625 23.5625 54.5625 23.9375 58.3125 25.0625C58.3125 25.0625 67.3125 18.6875 71.25 20C73.875 26.5625 72.1875 31.4375 71.8125 32.75C74.8125 36.125 76.6875 38.5625 76.6875 43.8125C76.6875 61.8125 65.625 63.3125 55.125 64.4375C56.8125 65.9375 58.3125 68.75 58.3125 73.25C58.3125 79.4375 58.125 87.3125 58.125 88.8125C58.125 90.125 59.0625 91.625 61.5 91.0625C80.25 84.875 93 67.0625 93 46.25C93 20.375 71.8125 0.5 45.75 0.5ZM18.1875 65.1875C17.8125 65.375 18 65.9375 18.1875 66.3125C18.5625 66.5 18.9375 66.6875 19.3125 66.5C19.5 66.3125 19.5 65.75 19.125 65.375C18.75 65.1875 18.375 65 18.1875 65.1875ZM16.125 63.6875C15.9375 64.0625 16.125 64.25 16.5 64.4375C16.875 64.625 17.25 64.625 17.4375 64.25C17.4375 64.0625 17.25 63.875 16.875 63.6875C16.5 63.5 16.3125 63.5 16.125 63.6875ZM22.125 70.4375C21.9375 70.625 21.9375 71.1875 22.5 71.5625C22.875 71.9375 23.4375 72.125 23.625 71.75C23.8125 71.5625 23.8125 71 23.4375 70.625C23.0625 70.25 22.5 70.0625 22.125 70.4375ZM20.0625 67.625C19.6875 67.8125 19.6875 68.375 20.0625 68.75C20.4375 69.125 20.8125 69.3125 21.1875 69.125C21.375 68.9375 21.375 68.375 21.1875 68C20.8125 67.625 20.4375 67.4375 20.0625 67.625Z" fill="url(#paint0_linear_129_31)"/>
<defs>
<linearGradient id="paint0_linear_129_31" x1="46.5" y1="0" x2="46.5" y2="94" gradientUnits="userSpaceOnUse">
<stop stop-color="#FD1F1F"/>
<stop offset="1" stop-color="#FD1F1F" stop-opacity="0.35"/>
</linearGradient>
</defs>
</svg>
