<svg width="59" height="58" viewBox="0 0 59 58" fill="none" xmlns="http://www.w3.org/2000/svg">
<path d="M19.3359 46.1406C19.3359 46.375 19.1016 46.4922 18.75 46.4922C18.3984 46.6094 18.1641 46.375 18.1641 46.1406C18.1641 45.9062 18.3984 45.6719 18.75 45.6719C19.1016 45.6719 19.3359 45.9062 19.3359 46.1406ZM15.7031 45.5547C15.7031 45.7891 15.9375 46.1406 16.2891 46.1406C16.5234 46.2578 16.875 46.1406 16.9922 45.9062C16.9922 45.6719 16.875 45.4375 16.5234 45.3203C16.1719 45.2031 15.8203 45.3203 15.7031 45.5547ZM20.9766 45.4375C20.625 45.4375 20.3906 45.6719 20.3906 46.0234C20.3906 46.2578 20.7422 46.375 21.0938 46.2578C21.4453 46.1406 21.6797 46.0234 21.5625 45.7891C21.5625 45.5547 21.2109 45.3203 20.9766 45.4375ZM28.5938 0.4375C12.4219 0.4375 0 12.8594 0 29.0312C0 42.0391 8.08594 53.1719 19.8047 57.1562C21.3281 57.3906 21.7969 56.4531 21.7969 55.75C21.7969 54.9297 21.7969 50.9453 21.7969 48.4844C21.7969 48.4844 13.5938 50.2422 11.8359 44.9688C11.8359 44.9688 10.5469 41.5703 8.67188 40.75C8.67188 40.75 5.97656 38.875 8.78906 38.875C8.78906 38.875 11.7188 39.1094 13.3594 41.9219C15.9375 46.4922 20.1562 45.2031 21.9141 44.3828C22.1484 42.5078 22.8516 41.2188 23.7891 40.3984C17.2266 39.6953 10.5469 38.7578 10.5469 27.5078C10.5469 24.2266 11.4844 22.7031 13.3594 20.5938C13.0078 19.7734 12.0703 16.7266 13.7109 12.625C16.0547 11.9219 21.7969 15.7891 21.7969 15.7891C24.1406 15.0859 26.6016 14.8516 29.0625 14.8516C31.6406 14.8516 34.1016 15.0859 36.4453 15.7891C36.4453 15.7891 42.0703 11.8047 44.5312 12.625C46.1719 16.7266 45.1172 19.7734 44.8828 20.5938C46.7578 22.7031 47.9297 24.2266 47.9297 27.5078C47.9297 38.7578 41.0156 39.6953 34.4531 40.3984C35.5078 41.3359 36.4453 43.0938 36.4453 45.9062C36.4453 49.7734 36.3281 54.6953 36.3281 55.6328C36.3281 56.4531 36.9141 57.3906 38.4375 57.0391C50.1562 53.1719 58.125 42.0391 58.125 29.0312C58.125 12.8594 44.8828 0.4375 28.5938 0.4375ZM11.3672 40.8672C11.1328 40.9844 11.25 41.3359 11.3672 41.5703C11.6016 41.6875 11.8359 41.8047 12.0703 41.6875C12.1875 41.5703 12.1875 41.2188 11.9531 40.9844C11.7188 40.8672 11.4844 40.75 11.3672 40.8672ZM10.0781 39.9297C9.96094 40.1641 10.0781 40.2812 10.3125 40.3984C10.5469 40.5156 10.7812 40.5156 10.8984 40.2812C10.8984 40.1641 10.7812 40.0469 10.5469 39.9297C10.3125 39.8125 10.1953 39.8125 10.0781 39.9297ZM13.8281 44.1484C13.7109 44.2656 13.7109 44.6172 14.0625 44.8516C14.2969 45.0859 14.6484 45.2031 14.7656 44.9688C14.8828 44.8516 14.8828 44.5 14.6484 44.2656C14.4141 44.0312 14.0625 43.9141 13.8281 44.1484ZM12.5391 42.3906C12.3047 42.5078 12.3047 42.8594 12.5391 43.0938C12.7734 43.3281 13.0078 43.4453 13.2422 43.3281C13.3594 43.2109 13.3594 42.8594 13.2422 42.625C13.0078 42.3906 12.7734 42.2734 12.5391 42.3906Z" fill="#D72828"/>
</svg>
