<svg width="44" height="51" viewBox="0 0 44 51" fill="none" xmlns="http://www.w3.org/2000/svg">
<path d="M39.2857 3.1875H4.71429C2.11161 3.1875 0 5.3291 0 7.96875V43.0312C0 45.6709 2.11161 47.8125 4.71429 47.8125H39.2857C41.8884 47.8125 44 45.6709 44 43.0312V7.96875C44 5.3291 41.8884 3.1875 39.2857 3.1875ZM27.2348 41.4076C26.4098 41.557 26.1054 41.0391 26.1054 40.6107C26.1054 40.0729 26.125 37.3236 26.125 35.1023C26.125 33.5484 25.6143 32.5623 25.0152 32.0443C28.6491 31.6359 32.4795 31.1279 32.4795 24.7629C32.4795 22.95 31.8411 22.0436 30.8 20.8781C30.967 20.4498 31.5268 18.6867 30.633 16.3957C29.2679 15.9674 26.1446 18.1787 26.1446 18.1787C24.8482 17.8102 23.4438 17.6209 22.0589 17.6209C20.6741 17.6209 19.2696 17.8102 17.9732 18.1787C17.9732 18.1787 14.85 15.9674 13.4848 16.3957C12.5911 18.6768 13.1411 20.4398 13.3179 20.8781C12.2768 22.0436 11.7857 22.95 11.7857 24.7629C11.7857 31.098 15.4491 31.6359 19.083 32.0443C18.6116 32.4727 18.1893 33.2098 18.042 34.2656C17.1089 34.6939 14.7223 35.4311 13.2982 32.8811C12.4045 31.3072 10.7937 31.1777 10.7937 31.1777C9.20268 31.1578 10.6857 32.1938 10.6857 32.1938C11.7464 32.6918 12.4929 34.6043 12.4929 34.6043C13.4455 37.5627 18.0027 36.5666 18.0027 36.5666C18.0027 37.9512 18.0223 40.2023 18.0223 40.6107C18.0223 41.0391 17.7277 41.557 16.8929 41.4076C10.4107 39.2063 5.87321 32.9508 5.87321 25.6395C5.87321 16.4953 12.7679 9.55254 21.7839 9.55254C30.8 9.55254 38.1071 16.4953 38.1071 25.6395C38.117 32.9508 33.717 39.2162 27.2348 41.4076ZM17.6 35.3215C17.4134 35.3613 17.2366 35.2816 17.217 35.1521C17.1973 35.0027 17.325 34.8732 17.5116 34.8334C17.6982 34.8135 17.875 34.8932 17.8946 35.0227C17.9241 35.1521 17.7964 35.2816 17.6 35.3215ZM16.667 35.2318C16.667 35.3613 16.5196 35.4709 16.3232 35.4709C16.1071 35.4908 15.9598 35.3813 15.9598 35.2318C15.9598 35.1023 16.1071 34.9928 16.3036 34.9928C16.4902 34.9729 16.667 35.0824 16.667 35.2318ZM15.3214 35.1223C15.2821 35.2518 15.0857 35.3115 14.9187 35.2518C14.7321 35.2119 14.6045 35.0625 14.6438 34.933C14.683 34.8035 14.8795 34.7438 15.0464 34.7836C15.2429 34.8434 15.3705 34.9928 15.3214 35.1223ZM14.1134 34.5844C14.025 34.6939 13.8384 34.674 13.6911 34.5246C13.5437 34.3951 13.5045 34.2059 13.6027 34.1162C13.6911 34.0066 13.8777 34.0266 14.025 34.176C14.1527 34.3055 14.2018 34.5047 14.1134 34.5844ZM13.2196 33.6779C13.1313 33.7377 12.9643 33.6779 12.8562 33.5285C12.7482 33.3791 12.7482 33.2098 12.8562 33.14C12.9643 33.0504 13.1313 33.1201 13.2196 33.2695C13.3277 33.4189 13.3277 33.5982 13.2196 33.6779V33.6779ZM12.5813 32.7117C12.4929 32.8014 12.3455 32.7516 12.2375 32.652C12.1295 32.5225 12.1098 32.373 12.1982 32.3033C12.2866 32.2137 12.4339 32.2635 12.542 32.3631C12.65 32.4926 12.6696 32.642 12.5813 32.7117ZM11.9232 31.9746C11.8839 32.0643 11.7562 32.0842 11.6482 32.0145C11.5205 31.9547 11.4616 31.8451 11.5009 31.7555C11.5402 31.6957 11.6482 31.6658 11.7759 31.7156C11.9036 31.7854 11.9625 31.8949 11.9232 31.9746Z" fill="black"/>
</svg>
