<svg width="101" height="109" viewBox="0 0 101 109" fill="none" xmlns="http://www.w3.org/2000/svg">
<path d="M90.1785 0H10.8214C4.84711 0 0 5.23102 0 11.6786V97.3213C0 103.769 4.84711 109 10.8214 109H90.1785C96.1529 109 101 103.769 101 97.3213V11.6786C101 5.23102 96.1529 0 90.1785 0ZM62.5162 93.3555C60.6225 93.7205 59.9238 92.4554 59.9238 91.409C59.9238 90.0954 59.9687 83.3801 59.9687 77.9544C59.9687 74.1588 58.7965 71.7502 57.4213 70.485C65.7627 69.4874 74.5552 68.2466 74.5552 52.6996C74.5552 48.2714 73.0898 46.0575 70.7 43.2107C71.0833 42.1645 72.3683 37.858 70.3167 32.262C67.1831 31.2159 60.0137 36.6172 60.0137 36.6172C57.0379 35.7171 53.8142 35.2547 50.6352 35.2547C47.4565 35.2547 44.2325 35.7171 41.2567 36.6172C41.2567 36.6172 34.0875 31.2159 30.9537 32.262C28.9023 37.8338 30.1648 42.1401 30.5706 43.2107C28.1808 46.0575 27.0535 48.2714 27.0535 52.6996C27.0535 68.1735 35.4627 69.4874 43.8042 70.485C42.7221 71.5314 41.7527 73.3318 41.4146 75.9107C39.2727 76.9568 33.7944 78.7575 30.5254 72.5289C28.474 68.6845 24.7764 68.3682 24.7764 68.3682C21.1243 68.3196 24.5285 70.8501 24.5285 70.8501C26.9633 72.0665 28.6769 76.738 28.6769 76.738C30.8635 83.9641 41.3244 81.531 41.3244 81.531C41.3244 84.913 41.3694 90.4115 41.3694 91.409C41.3694 92.4554 40.6931 93.7205 38.7769 93.3555C23.8973 87.9787 13.4817 72.6992 13.4817 54.8407C13.4817 32.5053 29.3081 15.5471 50.0039 15.5471C70.7 15.5471 87.4731 32.5053 87.4731 54.8407C87.4958 72.6992 77.3958 88.0029 62.5162 93.3555ZM40.4 78.4898C39.9717 78.587 39.5658 78.3923 39.5208 78.076C39.4756 77.7111 39.7688 77.3948 40.1971 77.2976C40.6254 77.2489 41.0312 77.4436 41.0762 77.7599C41.144 78.076 40.8508 78.3923 40.4 78.4898ZM38.2583 78.2707C38.2583 78.587 37.92 78.8547 37.4692 78.8547C36.9731 78.9033 36.635 78.6358 36.635 78.2707C36.635 77.9544 36.9731 77.6869 37.4242 77.6869C37.8525 77.6383 38.2583 77.9058 38.2583 78.2707ZM35.1696 78.0032C35.0794 78.3195 34.6285 78.4653 34.2452 78.3195C33.8169 78.2221 33.524 77.8571 33.6142 77.5408C33.7042 77.2245 34.1552 77.0787 34.5383 77.1759C34.9894 77.322 35.2823 77.6869 35.1696 78.0032ZM32.3967 76.6894C32.1938 76.9568 31.7654 76.9082 31.4273 76.5433C31.0889 76.227 30.999 75.7648 31.2244 75.5457C31.4273 75.278 31.8556 75.3269 32.1937 75.6918C32.4869 76.0081 32.5996 76.4947 32.3967 76.6894ZM30.345 74.4751C30.1423 74.6212 29.759 74.4752 29.5108 74.1102C29.2629 73.7453 29.2629 73.3318 29.5108 73.1613C29.759 72.9424 30.1423 73.1127 30.345 73.4776C30.5931 73.8425 30.5931 74.2805 30.345 74.4751ZM28.8798 72.1151C28.6769 72.3342 28.3385 72.2126 28.0906 71.9693C27.8427 71.653 27.7975 71.2878 28.0004 71.1176C28.2033 70.8987 28.5415 71.0204 28.7896 71.2636C29.0375 71.58 29.0825 71.9449 28.8798 72.1151ZM27.3692 70.3147C27.279 70.5338 26.9858 70.5824 26.7379 70.4122C26.4448 70.2661 26.3096 69.9984 26.3998 69.7795C26.49 69.6335 26.7379 69.5604 27.031 69.6821C27.3242 69.8526 27.4594 70.12 27.3692 70.3147Z" fill="#999999"/>
</svg>
