<svg width="101" height="109" viewBox="0 0 101 109" fill="none" xmlns="http://www.w3.org/2000/svg">
<path d="M0 0V109H101V0H0ZM54.9638 85.0103C54.9638 95.6183 49.1924 100.46 40.7833 100.46C33.1857 100.46 28.7895 96.2266 26.535 91.0929L34.2679 86.0565C35.7558 88.9031 37.1085 91.3118 40.3775 91.3118C43.4886 91.3118 45.4725 89.998 45.4725 84.8643V50.0475H54.9638V85.0103V85.0103ZM77.4183 100.46C68.6033 100.46 62.8996 95.9346 60.1266 89.998L67.8594 85.1806C69.8884 88.7571 72.5487 91.4092 77.2154 91.4092C81.1382 91.4092 83.6632 89.2924 83.6632 86.3484C83.6632 82.8449 81.0931 81.604 76.742 79.5359L74.3748 78.4411C67.5212 75.3025 62.9897 71.3366 62.9897 62.9913C62.9897 55.3029 68.423 49.4636 76.8772 49.4636C82.9192 49.4636 87.2478 51.7263 90.3589 57.6629L82.9643 62.7723C81.3411 59.6337 79.5826 58.3929 76.8547 58.3929C74.0817 58.3929 72.3232 60.2906 72.3232 62.7723C72.3232 65.8379 74.0817 67.0788 78.1623 69.0009L80.5295 70.0958C88.6005 73.8183 93.1319 77.6382 93.1319 86.2025C93.1319 95.3993 86.4136 100.46 77.4183 100.46V100.46Z" fill="#FAE423"/>
</svg>
