<svg width="84" height="84" viewBox="0 0 84 84" fill="none" xmlns="http://www.w3.org/2000/svg">
<path d="M78 0H5.8125C2.625 0 0 2.8125 0 6.1875V78C0 81.375 2.625 84 5.8125 84H78C81.1875 84 84 81.375 84 78V6.1875C84 2.8125 81.1875 0 78 0ZM25.3125 72H12.9375V32.0625H25.3125V72ZM19.125 26.4375C15 26.4375 11.8125 23.25 11.8125 19.3125C11.8125 15.375 15 12 19.125 12C23.0625 12 26.25 15.375 26.25 19.3125C26.25 23.25 23.0625 26.4375 19.125 26.4375ZM72 72H59.4375V52.5C59.4375 48 59.4375 42 53.0625 42C46.5 42 45.5625 47.0625 45.5625 52.3125V72H33.1875V32.0625H45V37.5H45.1875C46.875 34.3125 51 30.9375 57 30.9375C69.5625 30.9375 72 39.375 72 50.0625V72Z" fill="url(#paint0_linear_129_30)"/>
<defs>
<linearGradient id="paint0_linear_129_30" x1="43.5" y1="-2" x2="43.5" y2="85" gradientUnits="userSpaceOnUse">
<stop stop-color="#FD1F1F"/>
<stop offset="1" stop-color="#FD1F1F" stop-opacity="0.35"/>
</linearGradient>
</defs>
</svg>
